<svg width="21" height="18" viewBox="0 0 21 18" fill="none" xmlns="http://www.w3.org/2000/svg">
<path d="M9.99461 10.4994V15.2137C9.99461 15.8684 9.76544 16.425 9.30711 16.8833C8.84878 17.3416 8.29223 17.5708 7.63747 17.5708H2.92318C2.26842 17.5708 1.71187 17.3416 1.25354 16.8833C0.795207 16.425 0.56604 15.8684 0.56604 15.2137V6.5708C0.56604 5.71961 0.731777 4.9073 1.06325 4.13386C1.39472 3.36042 1.84283 2.69134 2.40756 2.12661C2.97229 1.56187 3.64137 1.11377 4.41481 0.782297C5.18825 0.450825 6.00056 0.285088 6.85175 0.285088H7.63747C7.85027 0.285088 8.03442 0.362841 8.18992 0.518347C8.34543 0.673853 8.42318 0.858006 8.42318 1.0708V2.64223C8.42318 2.85503 8.34543 3.03918 8.18992 3.19469C8.03442 3.35019 7.85027 3.42795 7.63747 3.42795H6.85175C5.98419 3.42795 5.2435 3.73486 4.62966 4.3487C4.01582 4.96254 3.7089 5.70324 3.7089 6.5708V6.96366C3.7089 7.29104 3.82348 7.56931 4.05265 7.79848C4.28181 8.02765 4.56009 8.14223 4.88747 8.14223H7.63747C8.29223 8.14223 8.84878 8.3714 9.30711 8.82973C9.76544 9.28806 9.99461 9.84461 9.99461 10.4994ZM20.9946 10.4994V15.2137C20.9946 15.8684 20.7654 16.425 20.3071 16.8833C19.8488 17.3416 19.2922 17.5708 18.6375 17.5708H13.9232C13.2684 17.5708 12.7119 17.3416 12.2535 16.8833C11.7952 16.425 11.566 15.8684 11.566 15.2137V6.5708C11.566 5.71961 11.7318 4.9073 12.0632 4.13386C12.3947 3.36042 12.8428 2.69134 13.4076 2.12661C13.9723 1.56187 14.6414 1.11377 15.4148 0.782297C16.1882 0.450825 17.0006 0.285088 17.8518 0.285088H18.6375C18.8503 0.285088 19.0344 0.362841 19.1899 0.518347C19.3454 0.673853 19.4232 0.858006 19.4232 1.0708V2.64223C19.4232 2.85503 19.3454 3.03918 19.1899 3.19469C19.0344 3.35019 18.8503 3.42795 18.6375 3.42795H17.8518C16.9842 3.42795 16.2435 3.73486 15.6297 4.3487C15.0158 4.96254 14.7089 5.70324 14.7089 6.5708V6.96366C14.7089 7.29104 14.8235 7.56931 15.0526 7.79848C15.2818 8.02765 15.5601 8.14223 15.8875 8.14223H18.6375C19.2922 8.14223 19.8488 8.3714 20.3071 8.82973C20.7654 9.28806 20.9946 9.84461 20.9946 10.4994Z" fill="#8E8E8E"/>
</svg>
